<?xml version="1.0" standalone="no"?>
<!DOCTYPE svg PUBLIC "-//W3C//DTD SVG 20010904//EN"
 "http://www.w3.org/TR/2001/REC-SVG-20010904/DTD/svg10.dtd">
<svg version="1.0" xmlns="http://www.w3.org/2000/svg"
 width="260.000000pt" height="260.000000pt" viewBox="0 0 260.000000 260.000000"
 preserveAspectRatio="xMidYMid meet">
<metadata>
Created by potrace 1.14, written by Peter Selinger 2001-2017
</metadata>
<g transform="translate(0.000000,260.000000) scale(0.100000,-0.100000)"
fill="#000000" stroke="none">
<path d="M927 2019 c-66 -26 -131 -83 -159 -138 -13 -25 -26 -48 -29 -51 -6
-5 -8 -12 -12 -80 -2 -25 -6 -50 -9 -56 -4 -5 -3 -16 2 -24 5 -9 5 -19 -2 -27
-6 -7 -7 -13 -2 -13 5 0 9 -33 9 -73 0 -62 -2 -72 -17 -69 -12 2 -16 -3 -13
-18 2 -13 -1 -20 -11 -20 -22 0 -17 -15 11 -30 14 -7 25 -20 26 -29 0 -9 2
-56 5 -106 5 -120 5 -114 16 -165 23 -101 101 -290 120 -290 4 0 8 -4 8 -10 0
-18 79 -104 143 -158 42 -35 133 -76 197 -89 51 -10 113 -14 128 -8 9 4 31 9
47 11 49 5 55 7 55 14 0 4 6 7 13 7 34 0 118 54 183 118 62 62 152 190 158
227 1 7 7 22 14 34 14 26 49 163 56 222 3 24 8 47 11 53 4 5 1 9 -5 9 -6 0 -8
5 -4 12 4 6 7 40 6 75 -1 53 1 63 16 63 9 0 23 9 30 20 10 17 10 20 -4 20 -10
0 -13 6 -9 19 4 13 0 20 -13 23 -16 5 -22 32 -12 58 1 3 2 9 1 14 -6 29 -4
103 3 114 4 7 4 12 -1 12 -4 0 -7 21 -7 47 1 27 -1 53 -5 58 -3 6 -6 16 -7 23
-8 49 -107 172 -139 172 -7 0 -15 5 -17 10 -2 6 -14 12 -27 15 -12 2 -28 9
-35 14 -6 5 -146 9 -341 9 -299 0 -335 -2 -378 -19z"/>
</g>
</svg>
